<?xml version="1.0" encoding="UTF-8" standalone="no"?>
<svg
   xml:space="preserve"
   width="856.33484"
   height="1000"
   overflow="visible"
   viewBox="0 0 856.33484 999.99992"
   version="1.1"
   id="svg7"
   sodipodi:docname="Apple_Computer_Logo_rainbow.svg"
   xmlns:inkscape="http://www.inkscape.org/namespaces/inkscape"
   xmlns:sodipodi="http://sodipodi.sourceforge.net/DTD/sodipodi-0.dtd"
   xmlns="http://www.w3.org/2000/svg"
   xmlns:svg="http://www.w3.org/2000/svg"><defs
   id="defs7" /><sodipodi:namedview
   id="namedview7"
   pagecolor="#ffffff"
   bordercolor="#000000"
   borderopacity="0.25"
   inkscape:showpageshadow="2"
   inkscape:pageopacity="0.0"
   inkscape:pagecheckerboard="0"
   inkscape:deskcolor="#d1d1d1" />&#10;  &#10;<path
   style="fill:#000000"
   d="m 90.497738,305.42986 57.692302,-40.72398 65.61086,-27.14932 62.2172,-4.52489 53.16742,13.57466 55.42986,16.96833 44.11765,11.31222 65.61086,-5.65611 L 553.16742,250 623.30317,233.03167 c 5.6561,0 82.57918,11.31222 82.57918,11.31222 l 74.66063,39.59276 22.62444,26.0181 c 26.0181,27.14932 27.14932,31.67421 27.14932,31.67421 l -27.14932,12.44344 -36.1991,38.46153 -40.72398,61.08598 -12.44344,75.79185 16.96833,78.0543 40.72398,63.34842 45.24887,44.11764 39.59276,18.09955 -21.49321,50.90498 c -4.52489,5.65611 -73.52941,116.51584 -73.52941,116.51584 L 701.35746,967.19457 641.40271,1000 l -42.98642,-1.13122 -44.11765,-12.44344 -56.56109,-20.36199 -52.03619,-4.52489 -49.77376,5.65611 -50.90498,16.96832 -35.06787,11.31222 -32.80543,2.26244 c -6.78733,0 -70.13575,-20.36199 -70.13575,-20.36199 L 162.89593,937.7828 81.447964,824.66063 7.918552,636.87783 0,554.29864 6.7873303,450.22624 36.199095,373.30317 Z m 338.235292,-170.81448 -20.36199,66.74208 2.26244,36.1991 3.39367,7.91855 28.28054,-2.26244 79.18552,-38.46154 40.72398,-40.72398 28.28055,-45.24887 26.0181,-49.773755 2.26244,-46.38009 L 617.64706,0 575.79185,5.6561086 510.18099,37.330317 475.11312,75.791855 444.57013,110.85973 Z"
   id="path8" /></svg>
